<svg width="27" height="33" viewBox="0 0 27 33" fill="none" xmlns="http://www.w3.org/2000/svg">
<path d="M22.3594 17.4141C22.3594 14.8125 23.5547 12.9141 25.875 11.4375C24.5391 9.53906 22.5703 8.55469 19.9688 8.34375C17.4375 8.13281 14.6953 9.75 13.7109 9.75C12.6562 9.75 10.2656 8.41406 8.36719 8.41406C4.42969 8.48438 0.28125 11.5078 0.28125 17.7656C0.28125 19.5938 0.5625 21.4922 1.26562 23.4609C2.17969 26.0625 5.41406 32.3906 8.78906 32.25C10.5469 32.25 11.8125 30.9844 14.1328 30.9844C16.3828 30.9844 17.5078 32.25 19.4766 32.25C22.9219 32.25 25.875 26.4844 26.7188 23.8828C22.1484 21.7031 22.3594 17.5547 22.3594 17.4141ZM18.4219 5.88281C20.3203 3.63281 20.1094 1.52344 20.1094 0.75C18.4219 0.890625 16.4531 1.94531 15.3281 3.21094C14.0625 4.61719 13.3594 6.375 13.5 8.27344C15.3281 8.41406 17.0156 7.5 18.4219 5.88281Z" fill="white"/>
</svg>
