<svg width="45" height="21" viewBox="0 0 45 21" fill="none" xmlns="http://www.w3.org/2000/svg">
<path d="M7.80469 10.5703C7.80469 10.4297 7.66406 10.2891 7.52344 10.2891C7.3125 10.2891 7.17188 10.4297 7.17188 10.5703L6.82031 15.1406L7.17188 19.9219C7.17188 20.1328 7.3125 20.2031 7.52344 20.2031C7.66406 20.2031 7.80469 20.1328 7.80469 19.9219L8.22656 15.1406L7.80469 10.5703ZM9.28125 7.33594C9.14062 7.33594 9 7.47656 8.92969 7.6875L8.57812 15.1406L8.92969 19.9219C9 20.1328 9.14062 20.2734 9.28125 20.2734C9.49219 20.2734 9.63281 20.1328 9.63281 19.9219L10.0547 15.1406L9.63281 7.6875C9.63281 7.47656 9.49219 7.33594 9.28125 7.33594ZM11.1094 5.64844C10.8984 5.64844 10.7578 5.78906 10.6875 6L10.4062 15.1406L10.6875 19.9219C10.7578 20.1328 10.8984 20.2734 11.1094 20.2734C11.3203 20.2734 11.4609 20.1328 11.4609 19.9219L11.8125 15.1406L11.4609 6C11.4609 5.78906 11.3203 5.64844 11.1094 5.64844ZM0.492188 12.4688C0.351562 12.4688 0.351562 12.5391 0.28125 12.6094L0 15.1406L0.28125 17.6016C0.351562 17.6719 0.351562 17.7422 0.492188 17.7422C0.5625 17.7422 0.632812 17.6719 0.632812 17.6016L1.05469 15.1406L0.632812 12.6094C0.632812 12.5391 0.5625 12.4688 0.492188 12.4688ZM2.10938 10.9219C2.03906 10.9219 1.96875 10.9922 1.96875 11.0625L1.47656 15.1406L1.96875 19.0781C1.96875 19.2188 2.03906 19.2891 2.10938 19.2891C2.25 19.2891 2.32031 19.2188 2.32031 19.0781L2.8125 15.1406L2.32031 11.0625C2.32031 10.9922 2.25 10.9219 2.10938 10.9219ZM3.9375 10.0781C3.79688 10.0781 3.72656 10.2188 3.65625 10.3594L3.30469 15.1406L3.65625 19.7812C3.72656 19.8516 3.79688 19.9922 3.9375 19.9922C4.00781 19.9922 4.14844 19.8516 4.14844 19.7812L4.64062 15.1406L4.14844 10.3594C4.14844 10.2188 4.00781 10.0781 3.9375 10.0781ZM5.69531 9.9375C5.55469 9.9375 5.41406 10.0781 5.41406 10.2188L5.0625 15.1406L5.41406 19.9219C5.41406 20.0625 5.55469 20.1328 5.69531 20.1328C5.83594 20.1328 5.97656 20.0625 5.97656 19.9219L6.39844 15.1406L5.97656 10.2188C5.97656 10.0781 5.83594 9.9375 5.69531 9.9375ZM22.6406 2.13281C22.5703 2.0625 22.5 2.0625 22.3594 2.0625C22.2188 2.0625 22.0781 2.13281 22.0078 2.20312C21.8672 2.27344 21.7266 2.48438 21.7266 2.625V2.69531L21.5156 15.1406L21.6562 17.3906L21.7266 19.6406C21.7969 19.9922 22.0781 20.2734 22.3594 20.2734C22.7109 20.2734 22.9922 19.9922 22.9922 19.6406L23.2734 15.1406L22.9922 2.625C22.9219 2.41406 22.8516 2.27344 22.6406 2.13281ZM20.8125 3.25781C20.6719 3.1875 20.6016 3.11719 20.4609 3.11719C20.3906 3.11719 20.25 3.1875 20.1797 3.25781C20.0391 3.32812 19.8984 3.46875 19.8984 3.67969V3.82031L19.6875 15.1406C19.6875 15.1406 19.6875 15.1406 19.8984 19.7109V19.7812C19.8984 19.8516 19.9688 19.9922 20.0391 20.0625C20.1797 20.2031 20.3203 20.2734 20.4609 20.2734C20.6719 20.2734 20.8125 20.2031 20.8828 20.1328C21.0234 20.0625 21.0234 19.9219 21.0234 19.7109L21.0938 19.2891L21.3047 15.1406L21.0938 3.67969C21.0234 3.46875 20.9531 3.32812 20.8125 3.25781ZM12.9375 4.80469C12.7266 4.80469 12.5156 5.01562 12.5156 5.22656L12.2344 15.1406L12.5156 19.8516C12.5859 20.0625 12.7266 20.2734 12.9375 20.2734C13.2188 20.2734 13.3594 20.0625 13.3594 19.8516L13.7109 15.1406L13.3594 5.22656C13.3594 5.01562 13.2188 4.80469 12.9375 4.80469ZM39.4453 9.23438C38.6719 9.23438 37.9688 9.375 37.2656 9.65625C36.8438 4.66406 32.6953 0.796875 27.5625 0.796875C26.2969 0.796875 25.1016 1.00781 24.0469 1.42969C23.625 1.57031 23.4844 1.71094 23.4844 2.0625V19.6406C23.4844 19.9922 23.7656 20.2031 24.1172 20.2734H39.4453C42.4688 20.2734 44.9297 17.8125 44.9297 14.7891C45 11.6953 42.4688 9.23438 39.4453 9.23438ZM18.5625 5.01562C18.2812 5.01562 18.0703 5.22656 18 5.50781L17.7891 15.1406L18 19.7812C18.0703 20.0625 18.2812 20.2734 18.5625 20.2734C18.8438 20.2734 19.125 20.0625 19.125 19.7812L19.4062 15.1406L19.125 5.50781C19.0547 5.22656 18.8438 5.01562 18.5625 5.01562ZM14.8359 4.45312C14.5547 4.45312 14.3438 4.66406 14.3438 4.875L14.0625 15.1406L14.3438 19.8516C14.4141 20.0625 14.5547 20.2734 14.8359 20.2734C15.0469 20.2734 15.2578 20.0625 15.2578 19.8516L15.6094 15.1406L15.2578 4.875C15.2578 4.66406 15.0469 4.45312 14.8359 4.45312ZM16.6641 4.66406C16.3828 4.66406 16.1719 4.875 16.1719 5.15625L15.9609 15.1406L16.1719 19.7812C16.2422 20.0625 16.4531 20.2734 16.6641 20.2734C16.9453 20.2734 17.1562 20.0625 17.1562 19.7812L17.4375 15.1406L17.1562 5.15625C17.1562 4.875 16.9453 4.66406 16.6641 4.66406Z" fill="white"/>
</svg>
