<svg width="35" height="35" viewBox="0 0 35 35" fill="none" xmlns="http://www.w3.org/2000/svg">
<path d="M17.4375 0.0625C7.80469 0.0625 0 7.9375 0 17.5C0 27.1328 7.80469 34.9375 17.4375 34.9375C27 34.9375 34.875 27.1328 34.875 17.5C34.875 7.9375 27 0.0625 17.4375 0.0625ZM24.4688 25.7266C24.1875 25.7266 23.9766 25.6562 23.7656 25.5156C19.3359 22.8438 14.2734 22.7734 9.21094 23.7578C8.92969 23.8281 8.57812 23.9688 8.36719 23.9688C7.66406 23.9688 7.24219 23.4062 7.24219 22.8438C7.24219 22.1406 7.66406 21.7891 8.22656 21.6484C13.9922 20.3828 19.8281 20.5234 24.8906 23.4766C25.3125 23.7578 25.5234 24.0391 25.5234 24.6719C25.5234 25.3047 25.0312 25.7266 24.4688 25.7266ZM26.3672 21.1562C26.0156 21.1562 25.7344 20.9453 25.5234 20.875C21.0938 18.2734 14.5547 17.2188 8.71875 18.7656C8.36719 18.8359 8.22656 18.9766 7.875 18.9766C7.17188 18.9766 6.53906 18.3438 6.53906 17.5703C6.53906 16.8672 6.89062 16.375 7.59375 16.1641C9.5625 15.6016 11.6016 15.1797 14.4844 15.1797C19.0547 15.1797 23.4844 16.3047 26.9297 18.4141C27.4922 18.6953 27.7734 19.1875 27.7734 19.75C27.7031 20.5234 27.1406 21.1562 26.3672 21.1562ZM28.5469 15.8125C28.1953 15.8125 27.9844 15.6719 27.6328 15.5312C22.6406 12.5078 13.7109 11.8047 7.875 13.4219C7.66406 13.4922 7.3125 13.6328 6.96094 13.6328C6.04688 13.6328 5.34375 12.8594 5.34375 11.9453C5.34375 10.9609 5.97656 10.4688 6.60938 10.2578C9.07031 9.55469 11.8125 9.20312 14.8359 9.20312C19.9688 9.20312 25.3828 10.2578 29.25 12.5781C29.8125 12.8594 30.1641 13.2812 30.1641 14.125C30.1641 15.1094 29.3906 15.8125 28.5469 15.8125Z" fill="#D71362"/>
</svg>
